<?xml version="1.0" encoding="UTF-8" standalone="no"?>
<svg
   xmlnsdc="http://purl.org/dc/elements/1.1/"
   xmlnscc="http://creativecommons.org/ns#"
   xmlnsrdf="http://www.w3.org/1999/02/22-rdf-syntax-ns#"
   xmlnssvg="http://www.w3.org/2000/svg"
   xmlns="http://www.w3.org/2000/svg"
   viewBox="0 0 816.18665 166.06667"
   height="166.06667"
   width="816.18665"
   xmlSpace="preserve"
   id="svg2"
   version="1.1">
   <defs
     id="defs6" /><g
     transform="matrix(1.3333333,0,0,-1.3333333,0,166.06667)"
     id="g10"><g
       transform="scale(0.1)"
       id="g12"><path
         id="path14"
         style="fill:#7ecc28;fill-opacity:1;fill-rule:nonzero;stroke:none"
         d="M 545.422,581.484 333.941,793.152 401.813,861.008 545.43,717.367 688.984,860.926 756.852,793.09 545.422,581.484" /><path
         id="path16"
         style="fill:#51aee5;fill-opacity:1;fill-rule:nonzero;stroke:none"
         d="M 1035.08,514.465 918.418,631.117 C 865.852,475.168 718.5,362.805 544.836,362.805 c -217.738,0 -394.258,176.539 -394.258,394.261 0,173.668 112.356,321.014 268.309,373.594 l -114.84,114.83 C 123.918,1156.33 0,970.73 0,756.156 0,474.844 212.871,243.289 486.324,213.66 V 122.23 H 335.438 V 0 H 759.449 V 122.23 H 608.555 v 91.782 c 187.57,21.508 346.207,138.133 426.525,300.453" /><path
         id="path18"
         style="fill:#192043;fill-opacity:1;fill-rule:nonzero;stroke:none"
         d="m 1263.53,620.563 c 0,219.933 139.36,397.417 389.8,397.417 105.61,0 219.93,-43.558 304.85,-148.082 l -96.9,-81.66 c -50.09,60.977 -125.21,105.614 -207.95,105.614 -150.27,0 -252.61,-109.973 -252.61,-273.289 0,-158.965 105.62,-267.848 252.61,-267.848 87.09,0 158.96,44.644 207.95,105.621 l 96.9,-82.75 c -66.4,-82.754 -168.77,-145.895 -304.85,-145.895 -210.15,0 -389.8,137.188 -389.8,390.872" /><path
         id="path20"
         style="fill:#192043;fill-opacity:1;fill-rule:nonzero;stroke:none"
         d="m 2424.14,498.621 c 0,94.723 -64.24,166.582 -151.35,166.582 -84.92,0 -152.42,-64.238 -152.42,-166.582 0,-93.641 62.06,-160.058 152.42,-160.058 82.75,0 151.35,64.242 151.35,160.058 z m 116.49,268.93 v -531.34 h -116.49 v 70.773 h -2.18 c -38.11,-51.171 -95.82,-79.472 -168.77,-79.472 -146.98,0 -256.95,107.789 -256.95,272.191 0,160.059 109.97,275.469 255.87,275.469 67.5,0 125.21,-25.035 164.41,-71.859 h 2.17 v 64.238 h 121.94" /><path
         id="path22"
         style="fill:#192043;fill-opacity:1;fill-rule:nonzero;stroke:none"
         d="m 3058.5,403.898 v 260.223 h -65.33 v 103.43 h 65.33 v 176.39 h 121.95 v -176.39 h 155.7 v -103.43 h -155.7 V 415.867 c 0,-54.433 16.33,-74.043 51.17,-74.043 20.68,0 50.08,7.625 78.39,22.871 l 31.58,-105.609 c -31.58,-17.426 -65.33,-31.574 -135.02,-31.574 -91.45,0 -148.07,57.699 -148.07,176.386" /><path
         id="path24"
         style="fill:#192043;fill-opacity:1;fill-rule:nonzero;stroke:none"
         d="m 3779.25,500.801 c 0,97.984 -67.5,164.402 -154.61,164.402 -92.54,0 -154.61,-71.859 -154.61,-164.402 0,-90.371 63.15,-162.238 154.61,-162.238 86.02,0 154.61,66.417 154.61,162.238 z m -433.34,0 c 0,156.781 111.06,274.371 278.73,274.371 163.32,0 278.74,-111.051 278.74,-274.371 0,-161.145 -115.42,-273.289 -278.74,-273.289 -167.67,0 -278.73,117.59 -278.73,273.289" /><path
         id="path26"
         style="fill:#192043;fill-opacity:1;fill-rule:nonzero;stroke:none"
         d="M 4506.87,1009.26 4218.34,236.211 H 4101.83 L 3813.3,1009.26 h 141.54 l 203.61,-584.682 h 1.1 l 205.77,584.682 h 141.55" /><path
         id="path28"
         style="fill:#192043;fill-opacity:1;fill-rule:nonzero;stroke:none"
         d="m 4566.71,767.551 h 121.95 v -531.34 h -121.95 z m -21.01,160.375 c 0,43.551 35.94,80.574 81.66,80.574 45.73,0 82.76,-37.023 82.76,-80.574 0,-44.645 -37.03,-81.656 -82.76,-81.656 -45.72,0 -81.66,37.011 -81.66,81.656" /><path
         id="path30"
         style="fill:#192043;fill-opacity:1;fill-rule:nonzero;stroke:none"
         d="m 4745.24,304.816 60.98,91.457 c 42.46,-41.382 88.19,-62.058 153.52,-62.058 46.82,0 74.04,20.676 74.04,52.254 0,27.219 -34.85,40.289 -104.53,64.242 -87.11,30.48 -162.23,69.684 -162.23,174.207 0,87.109 78.4,150.254 187.27,150.254 67.5,0 128.48,-18.508 187.28,-66.418 l -60.98,-95.809 c -42.45,40.285 -91.46,56.618 -132.83,56.618 -23.95,0 -57.71,-13.063 -57.71,-45.727 0,-26.133 32.67,-44.648 83.85,-64.238 113.23,-44.649 184,-65.34 184,-170.95 0,-89.277 -63.15,-161.136 -198.16,-161.136 -86.02,0 -158.97,28.301 -214.5,77.304" /><path
         id="path32"
         style="fill:#192043;fill-opacity:1;fill-rule:nonzero;stroke:none"
         d="m 5266.74,403.898 v 260.223 h -65.33 v 103.43 h 65.33 v 176.39 h 121.95 v -176.39 h 155.7 v -103.43 h -155.7 V 415.867 c 0,-54.433 16.33,-74.043 51.18,-74.043 20.67,0 50.07,7.625 78.39,22.871 l 31.57,-105.609 c -31.57,-17.426 -65.33,-31.574 -135.01,-31.574 -91.46,0 -148.08,57.699 -148.08,176.386" /><path
         id="path34"
         style="fill:#192043;fill-opacity:1;fill-rule:nonzero;stroke:none"
         d="m 6004.91,498.621 c 0,94.723 -64.24,166.582 -151.34,166.582 -84.93,0 -152.43,-64.238 -152.43,-166.582 0,-93.641 62.06,-160.058 152.43,-160.058 82.75,0 151.34,64.242 151.34,160.058 z m 116.51,268.93 v -531.34 h -116.51 v 70.773 h -2.17 c -38.11,-51.171 -95.81,-79.472 -168.76,-79.472 -146.99,0 -256.96,107.789 -256.96,272.191 0,160.059 109.97,275.469 255.86,275.469 67.51,0 125.22,-25.035 164.42,-71.859 h 2.17 v 64.238 h 121.95" /><path
         id="path36"
         style="fill:#192043;fill-opacity:1;fill-rule:nonzero;stroke:none"
         d="m 2750.73,681.977 v 85.574 h -121.94 v -531.34 h 121.94 v 247.855 c 0,100.422 81.41,181.829 181.83,181.829 v 101.656 c -73.17,0 -138.55,-33.301 -181.83,-85.574" /></g></g></svg>