<svg width="171" height="38" viewBox="0 0 171 38" fill="none" xmlns="http://www.w3.org/2000/svg">
<path d="M37.0078 19.7072C37.0078 14.2857 41.2507 9.92488 47.0258 9.92488C49.5008 9.92488 51.7402 10.7499 53.3902 12.1642L51.3866 14.4035C50.0901 13.4606 48.6758 12.9892 47.1437 12.9892C43.2543 12.9892 40.4257 16.0535 40.4257 19.7072C40.4257 23.3608 43.1365 26.4251 46.9079 26.4251C48.7937 26.4251 50.4437 25.718 51.7402 24.5394L53.8616 26.8965C52.0937 28.5466 49.7366 29.4894 46.9079 29.4894C41.2507 29.6073 37.0078 25.2465 37.0078 19.7072Z" fill="white"/>
<path d="M54.8047 22.0643C54.8047 17.8214 57.5154 14.5214 61.5226 14.5214C63.5262 14.5214 65.1763 15.3464 66.3548 16.6428V14.7571H69.6549V29.2537H66.3548V27.4858C65.1763 28.7823 63.5262 29.6073 61.5226 29.6073C57.5154 29.6073 54.8047 26.1894 54.8047 22.0643ZM66.3548 22.0643C66.3548 19.4715 64.7048 17.5857 62.3476 17.5857C59.8726 17.5857 58.1047 19.4715 58.1047 22.0643C58.1047 24.6572 59.8726 26.4251 62.3476 26.4251C64.7048 26.4251 66.3548 24.6572 66.3548 22.0643Z" fill="white"/>
<path d="M72.3652 14.7571H75.6653V17.5857C76.2546 16.1714 77.7867 14.4035 80.9689 14.4035V17.9393C77.7867 17.9393 75.6653 19.4714 75.6653 23.2429V29.1359H72.3652V14.7571Z" fill="white"/>
<path d="M84.0336 24.6572V17.4678H81.9121V14.7571H84.0336V11.9285L87.3336 11.2213V14.7571H91.6944V17.4678H87.3336V24.7751C87.3336 26.3072 88.0408 26.7787 88.8658 26.7787C90.0444 26.7787 90.9872 26.0715 90.9872 26.0715L91.9301 28.5466C91.2229 29.018 90.0444 29.6073 88.3943 29.6073C85.4479 29.6073 84.0336 27.9573 84.0336 24.6572Z" fill="white"/>
<path d="M92.7549 22.0643C92.7549 17.8214 96.1728 14.5214 100.534 14.5214C104.776 14.5214 108.312 17.8214 108.312 22.0643C108.312 26.3073 104.894 29.6073 100.534 29.6073C96.2907 29.6073 92.7549 26.1894 92.7549 22.0643ZM104.894 22.0643C104.894 19.4715 103.009 17.5857 100.534 17.5857C98.0585 17.5857 96.1728 19.4715 96.1728 22.0643C96.1728 24.5394 98.0585 26.4251 100.534 26.4251C103.009 26.4251 104.894 24.5394 104.894 22.0643Z" fill="white"/>
<path d="M105.012 10.1606H108.43L113.027 21.0036C113.616 22.4179 114.559 25.2465 114.559 25.2465C114.559 25.2465 115.502 22.4179 116.091 21.0036L120.687 10.1606H124.223L116.327 29.2537H113.027L105.012 10.1606Z" fill="white"/>
<path d="M125.048 10.5142C125.048 9.45346 125.873 8.51059 127.052 8.51059C128.113 8.51059 129.056 9.45346 129.056 10.5142C129.056 11.5749 128.113 12.5178 127.052 12.5178C125.873 12.5178 125.048 11.5749 125.048 10.5142ZM125.402 14.6392H128.702V29.1359H125.402V14.6392Z" fill="white"/>
<path d="M130.588 27.368L131.766 24.6572C132.709 25.3644 134.242 26.4251 136.363 26.4251C137.659 26.4251 139.192 25.9537 139.192 24.8929C139.192 23.8322 137.777 23.5965 136.245 23.1251C133.534 22.4179 131.177 21.5929 131.177 18.6464C131.177 15.8178 134.124 14.2857 136.599 14.2857C138.72 14.2857 140.252 14.8749 141.784 15.8178L140.606 18.4107C139.309 17.7036 138.131 17.35 136.599 17.35C135.538 17.35 134.477 17.8214 134.477 18.6464C134.477 19.5893 135.656 19.825 136.952 20.1786C139.663 20.7679 142.492 21.8286 142.492 24.8929C142.492 28.3108 138.956 29.4894 136.245 29.4894C133.416 29.4894 131.295 28.0751 130.588 27.368Z" fill="white"/>
<path d="M145.438 24.5394V17.35H143.316V14.6392H145.438V11.8106L148.738 11.1035V14.6392H153.099V17.35H148.738V24.6572C148.738 26.1894 149.445 26.6608 150.27 26.6608C151.449 26.6608 152.392 25.9537 152.392 25.9537L153.334 28.4287C152.627 28.9001 151.449 29.4894 149.799 29.4894C146.97 29.4894 145.438 27.8394 145.438 24.5394Z" fill="white"/>
<path d="M154.277 21.9465C154.277 17.7036 156.988 14.4035 160.995 14.4035C162.999 14.4035 164.649 15.2285 165.828 16.525V14.6392H169.128V29.1359H165.828V27.368C164.649 28.6644 162.999 29.4894 160.995 29.4894C156.988 29.4894 154.277 26.0715 154.277 21.9465ZM165.828 21.9465C165.828 19.3536 164.177 17.4678 161.82 17.4678C159.345 17.4678 157.577 19.3536 157.577 21.9465C157.577 24.5394 159.345 26.3072 161.82 26.3072C164.06 26.3072 165.828 24.5394 165.828 21.9465Z" fill="white"/>
<path d="M11.6681 12.7535L15.5574 16.525L19.6825 12.7535L21.4504 14.5214L15.5574 20.1786L10.0181 14.6392L11.6681 12.7535Z" fill="#88C33D"/>
<path d="M29.1111 21.8286C28.404 21.1215 27.3432 20.0607 26.1646 18.8822C24.6325 23.1251 20.6253 26.1894 15.7931 26.1894C9.78228 26.1894 4.83221 21.2393 4.83221 15.2285C4.83221 10.5142 7.89654 6.38914 12.1395 4.85697C10.843 3.56053 9.78228 2.61766 9.19298 1.9105C4.36077 4.26768 0.942871 9.3356 0.942871 15.1107C0.942871 22.7715 6.71795 29.018 14.143 29.7252V32.4359H10.1359V35.6181H21.5681V32.4359H17.3252V29.7252C22.511 29.3716 26.8718 26.1894 29.1111 21.8286Z" fill="#29A8DF"/>
</svg>
